# Blender v2.93.4 OBJ File: 'building_1.blend'
# www.blender.org
mtllib building_1.mtl
o Building_Cube.001
v 0.750000 0.100000 0.745000
v 0.745000 0.100000 0.750000
v 0.750000 0.995000 0.745000
v 0.745000 1.000000 0.745000
v 0.745000 0.995000 0.750000
v -0.745000 0.100000 0.750000
v -0.750000 0.100000 0.745000
v -0.745000 1.000000 0.745000
v -0.750000 0.995000 0.745000
v -0.745000 0.995000 0.750000
v 0.745000 0.100000 -0.750000
v 0.750000 0.100000 -0.745000
v 0.745000 1.000000 -0.745000
v 0.750000 0.995000 -0.745000
v 0.745000 0.995000 -0.750000
v -0.750000 0.100000 -0.745000
v -0.745000 0.100000 -0.750000
v -0.745000 1.000000 -0.745000
v -0.745000 0.995000 -0.750000
v -0.750000 0.995000 -0.745000
v 0.099567 0.100000 -0.745000
v 0.104567 0.100000 -0.750000
v -0.104963 0.100000 -0.750000
v -0.099963 0.100000 -0.745000
v 0.099567 0.394981 -0.745000
v 0.094567 0.399981 -0.745000
v 0.104567 0.404981 -0.750000
v -0.094963 0.399981 -0.745000
v -0.099963 0.394981 -0.745000
v -0.104963 0.404981 -0.750000
v 0.094567 0.100000 -0.700000
v 0.099567 0.100000 -0.705000
v -0.099963 0.100000 -0.705000
v -0.094963 0.100000 -0.700000
v 0.099567 0.394981 -0.705000
v 0.094567 0.394981 -0.700000
v 0.094567 0.399981 -0.705000
v -0.094963 0.399981 -0.705000
v -0.094963 0.394981 -0.700000
v -0.099963 0.394981 -0.705000
v 1.000000 0.100000 1.000000
v 1.000000 0.100000 -1.000000
v -1.000000 0.100000 1.000000
v -1.000000 0.100000 -1.000000
v 1.000000 0.000000 1.000000
v 1.000000 0.000000 -1.000000
v -1.000000 0.000000 1.000000
v -1.000000 0.000000 -1.000000
vt 0.289058 0.398526
vt 0.008851 0.992238
vt 0.000000 0.153031
vt 0.619490 0.384993
vt 0.395058 0.137056
vt 0.481722 0.156308
vt 0.378923 0.002280
vt 0.410697 0.120719
vt 0.397579 0.132519
vt 0.626777 0.673014
vt 0.294986 0.399279
vt 0.618319 0.390898
vt 0.632545 0.674057
vt 0.907717 0.164883
vt 0.907717 0.994649
vt 0.515155 0.012349
vt 0.413255 0.120269
vt 0.401585 0.000000
vt 0.399819 0.135090
vt 0.468509 0.135968
vt 0.477386 0.152147
vt 0.480559 0.150369
vt 0.518370 0.013602
vt 0.534725 0.020080
vt 0.323309 0.699785
vt 0.329012 0.698305
vt 0.328239 0.704342
vt 0.627953 0.678661
vt 0.293358 0.393377
vt 0.623773 0.389698
vt 0.412511 0.122598
vt 0.468571 0.133443
vt 0.470927 0.134643
vt 0.014559 0.998273
vt 0.903306 0.159432
vt 0.398386 0.000314
vt 0.376073 0.002675
vt 0.537567 0.021244
vt 0.901550 1.000000
vt 1.000000 0.000000
vt 0.000000 1.000000
vt 0.000000 0.000000
vt 1.000000 0.000000
vt 1.000000 1.000000
vt 0.000000 1.000000
vt 1.000000 1.000000
vt 0.000000 0.000000
vt 0.004720 0.147436
vn 1.0000 0.0000 0.0000
vn 0.0000 0.0000 -1.0000
vn -1.0000 0.0000 0.0000
vn 0.0000 1.0000 0.0000
vn 0.0000 -1.0000 0.0000
vn 0.5773 0.5773 0.5774
vn -0.5773 0.5773 0.5774
vn 0.5773 0.5773 -0.5774
vn -0.5773 0.5773 -0.5774
vn -0.3015 -0.3015 -0.9045
vn 0.3015 -0.3015 -0.9045
vn -0.5773 -0.5774 -0.5773
vn 0.5774 -0.5774 -0.5774
vn 0.7071 0.0000 0.7071
vn 0.0000 0.7071 0.7071
vn -0.7071 0.0000 0.7071
vn -0.7071 0.7071 0.0000
vn -0.7071 0.0000 -0.7071
vn 0.0000 0.7071 -0.7071
vn 0.7071 0.0000 -0.7071
vn 0.7071 0.7071 0.0000
vn 0.0000 -0.7071 -0.7071
vn 0.7071 -0.7071 0.0000
vn -0.7071 -0.7071 0.0000
vn 0.0000 0.0000 1.0000
usemtl None
s off
f 14/1/1 1/2/1 12/3/1
f 19/4/2 27/5/2 30/6/2
f 21/7/3 35/8/3 25/9/3
f 8/10/4 13/11/4 18/12/4
f 9/13/3 16/14/3 7/15/3
f 34/16/2 36/17/2 31/18/2
f 26/19/5 38/20/5 28/21/5
f 29/22/1 33/23/1 24/24/1
f 3/25/6 4/26/6 5/27/6
f 8/10/7 9/13/7 10/28/7
f 13/11/8 14/1/8 15/29/8
f 18/12/9 19/4/9 20/30/9
f 25/9/10 26/19/10 27/5/10
f 28/21/11 29/22/11 30/6/11
f 35/8/12 36/17/12 37/31/12
f 38/20/13 39/32/13 40/33/13
f 3/25/14 2/34/14 1/2/14
f 8/10/15 5/27/15 4/26/15
f 7/15/16 10/28/16 9/13/16
f 18/12/17 9/13/17 8/10/17
f 17/35/18 20/30/18 19/4/18
f 13/11/19 19/4/19 18/12/19
f 12/3/20 15/29/20 14/1/20
f 4/26/21 14/1/21 13/11/21
f 36/17/18 32/36/18 31/18/18
f 25/9/18 22/37/18 21/7/18
f 28/21/22 27/5/22 26/19/22
f 29/22/20 23/38/20 30/6/20
f 39/32/22 37/31/22 36/17/22
f 34/16/20 40/33/20 39/32/20
f 38/20/23 29/22/23 28/21/23
f 35/8/24 26/19/24 25/9/24
f 5/27/25 6/39/25 2/34/25
f 42/40/4 43/41/4 41/42/4
f 46/43/2 44/44/2 42/40/2
f 47/45/25 41/42/25 43/41/25
f 48/46/3 43/41/3 44/44/3
f 45/47/1 42/40/1 41/42/1
f 14/1/1 3/25/1 1/2/1
f 23/38/2 17/35/2 30/6/2
f 17/35/2 19/4/2 30/6/2
f 19/4/2 15/29/2 27/5/2
f 15/29/2 11/48/2 27/5/2
f 11/48/2 22/37/2 27/5/2
f 21/7/3 32/36/3 35/8/3
f 8/10/4 4/26/4 13/11/4
f 9/13/3 20/30/3 16/14/3
f 34/16/2 39/32/2 36/17/2
f 26/19/5 37/31/5 38/20/5
f 29/22/1 40/33/1 33/23/1
f 3/25/14 5/27/14 2/34/14
f 8/10/15 10/28/15 5/27/15
f 7/15/16 6/39/16 10/28/16
f 18/12/17 20/30/17 9/13/17
f 17/35/18 16/14/18 20/30/18
f 13/11/19 15/29/19 19/4/19
f 12/3/20 11/48/20 15/29/20
f 4/26/21 3/25/21 14/1/21
f 36/17/18 35/8/18 32/36/18
f 25/9/18 27/5/18 22/37/18
f 28/21/22 30/6/22 27/5/22
f 29/22/20 24/24/20 23/38/20
f 39/32/22 38/20/22 37/31/22
f 34/16/20 33/23/20 40/33/20
f 38/20/23 40/33/23 29/22/23
f 35/8/24 37/31/24 26/19/24
f 5/27/25 10/28/25 6/39/25
f 42/40/4 44/44/4 43/41/4
f 46/43/2 48/46/2 44/44/2
f 47/45/25 45/47/25 41/42/25
f 48/46/3 47/45/3 43/41/3
f 45/47/1 46/43/1 42/40/1
